{
    "asset" : {
        "generator" : "Khronos glTF Blender I/O v1.0.5",
        "version" : "2.0"
    },
    "scene" : 0,
    "scenes" : [
        {
            "name" : "Scene",
            "nodes" : [
                0,
                1,
                2,
                3,
                4,
                5,
                6
            ]
        }
    ],
    "nodes" : [
        {
            "name" : "Light",
            "rotation" : [
                0.16907575726509094,
                0.7558803558349609,
                -0.27217137813568115,
                0.570947527885437
            ],
            "translation" : [
                4.076245307922363,
                5.903861999511719,
                -1.0054539442062378
            ]
        },
        {
            "name" : "Camera",
            "rotation" : [
                0.483536034822464,
                0.33687159419059753,
                -0.20870360732078552,
                0.7804827094078064
            ],
            "translation" : [
                7.358891487121582,
                4.958309173583984,
                6.925790786743164
            ]
        },
        {
            "mesh" : 0,
            "name" : "Cube",
            "rotation" : [
                0.258819043636322,
                0,
                0,
                0.9659258127212524
            ],
            "scale" : [
                1.5,
                0.05000000447034836,
                1
            ]
        },
        {
            "mesh" : 1,
            "name" : "Cylinder",
            "scale" : [
                0.9988158941268921,
                4,
                1
            ],
            "translation" : [
                0.006358924321830273,
                -0.003805081360042095,
                0.0030717549379915
            ]
        },
        {
            "mesh" : 2,
            "name" : "Cylinder.001",
            "scale" : [
                0.9988158941268921,
                4,
                1
            ],
            "translation" : [
                -0.0062100766226649284,
                -0.003805081360042095,
                0.0030717549379915
            ]
        },
        {
            "mesh" : 3,
            "name" : "Cylinder.002",
            "scale" : [
                0.9988158941268921,
                7.569999694824219,
                1
            ],
            "translation" : [
                -0.006200590170919895,
                -0.0058050816878676414,
                -0.0030959253199398518
            ]
        },
        {
            "mesh" : 4,
            "name" : "Cylinder.003",
            "scale" : [
                0.9988158941268921,
                7.53000020980835,
                1
            ],
            "translation" : [
                0.006138057913631201,
                -0.005805079825222492,
                -0.0031116518657654524
            ]
        }
    ],
    "materials" : [
        {
            "doubleSided" : true,
            "name" : "Material.001",
            "pbrMetallicRoughness" : {
                "baseColorFactor" : [
                    0.800000011920929,
                    0.800000011920929,
                    0.800000011920929,
                    1
                ],
                "metallicFactor" : 0,
                "roughnessFactor" : 0.5
            }
        }
    ],
    "meshes" : [
        {
            "name" : "Cube.001",
            "primitives" : [
                {
                    "attributes" : {
                        "POSITION" : 0,
                        "NORMAL" : 1,
                        "TEXCOORD_0" : 2
                    },
                    "indices" : 3,
                    "material" : 0
                }
            ]
        },
        {
            "name" : "Cylinder",
            "primitives" : [
                {
                    "attributes" : {
                        "POSITION" : 4,
                        "NORMAL" : 5,
                        "TEXCOORD_0" : 6
                    },
                    "indices" : 7
                }
            ]
        },
        {
            "name" : "Cylinder.001",
            "primitives" : [
                {
                    "attributes" : {
                        "POSITION" : 8,
                        "NORMAL" : 9,
                        "TEXCOORD_0" : 10
                    },
                    "indices" : 7
                }
            ]
        },
        {
            "name" : "Cylinder.002",
            "primitives" : [
                {
                    "attributes" : {
                        "POSITION" : 11,
                        "NORMAL" : 12,
                        "TEXCOORD_0" : 13
                    },
                    "indices" : 7
                }
            ]
        },
        {
            "name" : "Cylinder.003",
            "primitives" : [
                {
                    "attributes" : {
                        "POSITION" : 14,
                        "NORMAL" : 15,
                        "TEXCOORD_0" : 16
                    },
                    "indices" : 7
                }
            ]
        }
    ],
    "accessors" : [
        {
            "bufferView" : 0,
            "componentType" : 5126,
            "count" : 388,
            "max" : [
                0.004999999888241291,
                0.004999999888241291,
                0.004999999888241291
            ],
            "min" : [
                -0.004999999888241291,
                -0.004999999888241291,
                -0.004999999888241291
            ],
            "type" : "VEC3"
        },
        {
            "bufferView" : 1,
            "componentType" : 5126,
            "count" : 388,
            "type" : "VEC3"
        },
        {
            "bufferView" : 2,
            "componentType" : 5126,
            "count" : 388,
            "type" : "VEC2"
        },
        {
            "bufferView" : 3,
            "componentType" : 5123,
            "count" : 900,
            "type" : "SCALAR"
        },
        {
            "bufferView" : 4,
            "componentType" : 5126,
            "count" : 36,
            "max" : [
                0.00015588384121656418,
                0.0005000000237487257,
                0.00017999998817685992
            ],
            "min" : [
                -0.00015588532551191747,
                -0.0005000000237487257,
                -0.00017999998817685992
            ],
            "type" : "VEC3"
        },
        {
            "bufferView" : 5,
            "componentType" : 5126,
            "count" : 36,
            "type" : "VEC3"
        },
        {
            "bufferView" : 6,
            "componentType" : 5126,
            "count" : 36,
            "type" : "VEC2"
        },
        {
            "bufferView" : 7,
            "componentType" : 5123,
            "count" : 60,
            "type" : "SCALAR"
        },
        {
            "bufferView" : 8,
            "componentType" : 5126,
            "count" : 36,
            "max" : [
                0.00015588458336424083,
                0.0005000000237487257,
                0.00017999998817685992
            ],
            "min" : [
                -0.00015588458336424083,
                -0.0005000000237487257,
                -0.00017999998817685992
            ],
            "type" : "VEC3"
        },
        {
            "bufferView" : 9,
            "componentType" : 5126,
            "count" : 36,
            "type" : "VEC3"
        },
        {
            "bufferView" : 10,
            "componentType" : 5126,
            "count" : 36,
            "type" : "VEC2"
        },
        {
            "bufferView" : 11,
            "componentType" : 5126,
            "count" : 36,
            "max" : [
                0.00014638694119639695,
                0.0009999999310821295,
                0.00017295866564381868
            ],
            "min" : [
                -0.00016538219642825425,
                5.820766091346741e-11,
                -0.00018704129615798593
            ],
            "type" : "VEC3"
        },
        {
            "bufferView" : 12,
            "componentType" : 5126,
            "count" : 36,
            "type" : "VEC3"
        },
        {
            "bufferView" : 13,
            "componentType" : 5126,
            "count" : 36,
            "type" : "VEC2"
        },
        {
            "bufferView" : 14,
            "componentType" : 5126,
            "count" : 36,
            "max" : [
                0.00018026241741608828,
                0.000999999581836164,
                0.00018868522602133453
            ],
            "min" : [
                -0.00013150674931239337,
                -4.656612873077393e-10,
                -0.0001713147503323853
            ],
            "type" : "VEC3"
        },
        {
            "bufferView" : 15,
            "componentType" : 5126,
            "count" : 36,
            "type" : "VEC3"
        },
        {
            "bufferView" : 16,
            "componentType" : 5126,
            "count" : 36,
            "type" : "VEC2"
        }
    ],
    "bufferViews" : [
        {
            "buffer" : 0,
            "byteLength" : 4656,
            "byteOffset" : 0
        },
        {
            "buffer" : 0,
            "byteLength" : 4656,
            "byteOffset" : 4656
        },
        {
            "buffer" : 0,
            "byteLength" : 3104,
            "byteOffset" : 9312
        },
        {
            "buffer" : 0,
            "byteLength" : 1800,
            "byteOffset" : 12416
        },
        {
            "buffer" : 0,
            "byteLength" : 432,
            "byteOffset" : 14216
        },
        {
            "buffer" : 0,
            "byteLength" : 432,
            "byteOffset" : 14648
        },
        {
            "buffer" : 0,
            "byteLength" : 288,
            "byteOffset" : 15080
        },
        {
            "buffer" : 0,
            "byteLength" : 120,
            "byteOffset" : 15368
        },
        {
            "buffer" : 0,
            "byteLength" : 432,
            "byteOffset" : 15488
        },
        {
            "buffer" : 0,
            "byteLength" : 432,
            "byteOffset" : 15920
        },
        {
            "buffer" : 0,
            "byteLength" : 288,
            "byteOffset" : 16352
        },
        {
            "buffer" : 0,
            "byteLength" : 432,
            "byteOffset" : 16640
        },
        {
            "buffer" : 0,
            "byteLength" : 432,
            "byteOffset" : 17072
        },
        {
            "buffer" : 0,
            "byteLength" : 288,
            "byteOffset" : 17504
        },
        {
            "buffer" : 0,
            "byteLength" : 432,
            "byteOffset" : 17792
        },
        {
            "buffer" : 0,
            "byteLength" : 432,
            "byteOffset" : 18224
        },
        {
            "buffer" : 0,
            "byteLength" : 288,
            "byteOffset" : 18656
        }
    ],
    "buffers" : [
        {
            "byteLength" : 18944,
            "uri" : "data:application/octet-stream;base64,"
        }
    ]
}
