{
    "asset" : {
        "generator" : "Khronos glTF Blender I/O v1.0.5",
        "version" : "2.0"
    },
    "scene" : 0,
    "scenes" : [
        {
            "name" : "Scene",
            "nodes" : [
                0,
                1,
                2
            ]
        }
    ],
    "nodes" : [
        {
            "mesh" : 0,
            "name" : "Table",
            "translation" : [
                0,
                1.3755621910095215,
                0
            ]
        },
        {
            "mesh" : 1,
            "name" : "Leg",
            "translation" : [
                1.1253483295440674,
                0.6216222047805786,
                0
            ]
        },
        {
            "mesh" : 2,
            "name" : "Support",
            "rotation" : [
                0,
                0.3826834559440613,
                0,
                0.9238795042037964
            ],
            "translation" : [
                0,
                1.2946040630340576,
                0
            ]
        }
    ],
    "materials" : [
        {
            "doubleSided" : true,
            "name" : "Round table texture ",
            "pbrMetallicRoughness" : {}
        }
    ],
    "meshes" : [
        {
            "name" : "Circle.004",
            "primitives" : [
                {
                    "attributes" : {
                        "POSITION" : 0,
                        "NORMAL" : 1,
                        "TEXCOORD_0" : 2
                    },
                    "indices" : 3,
                    "material" : 0
                }
            ]
        },
        {
            "name" : "Cylinder.001",
            "primitives" : [
                {
                    "attributes" : {
                        "POSITION" : 4,
                        "NORMAL" : 5,
                        "TEXCOORD_0" : 6
                    },
                    "indices" : 7,
                    "material" : 0
                }
            ]
        },
        {
            "name" : "Cube",
            "primitives" : [
                {
                    "attributes" : {
                        "POSITION" : 8,
                        "NORMAL" : 9,
                        "TEXCOORD_0" : 10
                    },
                    "indices" : 11,
                    "material" : 0
                }
            ]
        }
    ],
    "accessors" : [
        {
            "bufferView" : 0,
            "componentType" : 5126,
            "count" : 556,
            "max" : [
                1.3070180416107178,
                0.057190895080566406,
                1.3070180416107178
            ],
            "min" : [
                -1.3070180416107178,
                0,
                -1.3070180416107178
            ],
            "type" : "VEC3"
        },
        {
            "bufferView" : 1,
            "componentType" : 5126,
            "count" : 556,
            "type" : "VEC3"
        },
        {
            "bufferView" : 2,
            "componentType" : 5126,
            "count" : 556,
            "type" : "VEC2"
        },
        {
            "bufferView" : 3,
            "componentType" : 5123,
            "count" : 3012,
            "type" : "SCALAR"
        },
        {
            "bufferView" : 4,
            "componentType" : 5126,
            "count" : 2884,
            "max" : [
                0.08893179893493652,
                0.7850717902183533,
                1.2074925899505615
            ],
            "min" : [
                -2.3260536193847656,
                -0.6444723606109619,
                -1.2074928283691406
            ],
            "type" : "VEC3"
        },
        {
            "bufferView" : 5,
            "componentType" : 5126,
            "count" : 2884,
            "type" : "VEC3"
        },
        {
            "bufferView" : 6,
            "componentType" : 5126,
            "count" : 2884,
            "type" : "VEC2"
        },
        {
            "bufferView" : 7,
            "componentType" : 5123,
            "count" : 15816,
            "type" : "SCALAR"
        },
        {
            "bufferView" : 8,
            "componentType" : 5126,
            "count" : 48,
            "max" : [
                0.8370000720024109,
                0.09000002592802048,
                0.8370000720024109
            ],
            "min" : [
                -0.8370000720024109,
                -0.09000002592802048,
                -0.8370000720024109
            ],
            "type" : "VEC3"
        },
        {
            "bufferView" : 9,
            "componentType" : 5126,
            "count" : 48,
            "type" : "VEC3"
        },
        {
            "bufferView" : 10,
            "componentType" : 5126,
            "count" : 48,
            "type" : "VEC2"
        },
        {
            "bufferView" : 11,
            "componentType" : 5123,
            "count" : 72,
            "type" : "SCALAR"
        }
    ],
    "bufferViews" : [
        {
            "buffer" : 0,
            "byteLength" : 6672,
            "byteOffset" : 0
        },
        {
            "buffer" : 0,
            "byteLength" : 6672,
            "byteOffset" : 6672
        },
        {
            "buffer" : 0,
            "byteLength" : 4448,
            "byteOffset" : 13344
        },
        {
            "buffer" : 0,
            "byteLength" : 6024,
            "byteOffset" : 17792
        },
        {
            "buffer" : 0,
            "byteLength" : 34608,
            "byteOffset" : 23816
        },
        {
            "buffer" : 0,
            "byteLength" : 34608,
            "byteOffset" : 58424
        },
        {
            "buffer" : 0,
            "byteLength" : 23072,
            "byteOffset" : 93032
        },
        {
            "buffer" : 0,
            "byteLength" : 31632,
            "byteOffset" : 116104
        },
        {
            "buffer" : 0,
            "byteLength" : 576,
            "byteOffset" : 147736
        },
        {
            "buffer" : 0,
            "byteLength" : 576,
            "byteOffset" : 148312
        },
        {
            "buffer" : 0,
            "byteLength" : 384,
            "byteOffset" : 148888
        },
        {
            "buffer" : 0,
            "byteLength" : 144,
            "byteOffset" : 149272
        }
    ],
    "buffers" : [
        {
            "byteLength" : 149416,
            "uri" : "data:application/octet-stream;base64,"
        }
    ]
}
