{
    "asset" : {
        "generator" : "Khronos glTF Blender I/O v1.0.5",
        "version" : "2.0"
    },
    "scene" : 0,
    "scenes" : [
        {
            "name" : "Scene",
            "nodes" : [
                0,
                1,
                2,
                3
            ]
        }
    ],
    "nodes" : [
        {
            "name" : "Light",
            "rotation" : [
                0.16907575726509094,
                0.7558803558349609,
                -0.27217137813568115,
                0.570947527885437
            ],
            "translation" : [
                4.076245307922363,
                5.903861999511719,
                -1.0054539442062378
            ]
        },
        {
            "name" : "Camera",
            "rotation" : [
                0.483536034822464,
                0.33687159419059753,
                -0.20870360732078552,
                0.7804827094078064
            ],
            "translation" : [
                7.358891487121582,
                4.958309173583984,
                6.925790786743164
            ]
        },
        {
            "mesh" : 0,
            "name" : "Plane",
            "scale" : [
                0.0005994790699332952,
                0.0005994790699332952,
                0.0005994790699332952
            ],
            "translation" : [
                0,
                1.4548856019973755,
                0
            ]
        },
        {
            "name" : "Sun"
        }
    ],
    "materials" : [
        {
            "doubleSided" : true,
            "name" : "grass",
            "pbrMetallicRoughness" : {
                "baseColorFactor" : [
                    0.19915908575057983,
                    0.4575362503528595,
                    0.035162582993507385,
                    1
                ],
                "metallicFactor" : 0,
                "roughnessFactor" : 0.5
            }
        },
        {
            "doubleSided" : true,
            "name" : "dirt",
            "pbrMetallicRoughness" : {
                "baseColorFactor" : [
                    0.09462746977806091,
                    0.08488890528678894,
                    0.07062437385320663,
                    1
                ],
                "metallicFactor" : 0,
                "roughnessFactor" : 0.5
            }
        },
        {
            "doubleSided" : true,
            "name" : "snow",
            "pbrMetallicRoughness" : {
                "baseColorFactor" : [
                    0.800000011920929,
                    0.800000011920929,
                    0.800000011920929,
                    1
                ],
                "metallicFactor" : 0,
                "roughnessFactor" : 0.5
            }
        }
    ],
    "meshes" : [
        {
            "name" : "Plane",
            "primitives" : [
                {
                    "attributes" : {
                        "POSITION" : 0,
                        "NORMAL" : 1,
                        "TEXCOORD_0" : 2
                    },
                    "indices" : 3,
                    "material" : 0
                },
                {
                    "attributes" : {
                        "POSITION" : 4,
                        "NORMAL" : 5,
                        "TEXCOORD_0" : 6
                    },
                    "indices" : 7,
                    "material" : 1
                },
                {
                    "attributes" : {
                        "POSITION" : 8,
                        "NORMAL" : 9,
                        "TEXCOORD_0" : 10
                    },
                    "indices" : 11,
                    "material" : 2
                }
            ]
        }
    ],
    "accessors" : [
        {
            "bufferView" : 0,
            "componentType" : 5126,
            "count" : 5403,
            "max" : [
                2031.2501220703125,
                158.77874755859375,
                2031.250244140625
            ],
            "min" : [
                -2031.250244140625,
                -67.58222961425781,
                -2031.250244140625
            ],
            "type" : "VEC3"
        },
        {
            "bufferView" : 1,
            "componentType" : 5126,
            "count" : 5403,
            "type" : "VEC3"
        },
        {
            "bufferView" : 2,
            "componentType" : 5126,
            "count" : 5403,
            "type" : "VEC2"
        },
        {
            "bufferView" : 3,
            "componentType" : 5123,
            "count" : 6366,
            "type" : "SCALAR"
        },
        {
            "bufferView" : 4,
            "componentType" : 5126,
            "count" : 2288,
            "max" : [
                2500.000244140625,
                849.7011108398438,
                2500.000244140625
            ],
            "min" : [
                -2500.000244140625,
                -47.863525390625,
                -2500.000244140625
            ],
            "type" : "VEC3"
        },
        {
            "bufferView" : 5,
            "componentType" : 5126,
            "count" : 2288,
            "type" : "VEC3"
        },
        {
            "bufferView" : 6,
            "componentType" : 5126,
            "count" : 2288,
            "type" : "VEC2"
        },
        {
            "bufferView" : 7,
            "componentType" : 5123,
            "count" : 2295,
            "type" : "SCALAR"
        },
        {
            "bufferView" : 8,
            "componentType" : 5126,
            "count" : 363,
            "max" : [
                2500.000244140625,
                946.332275390625,
                2500.000244140625
            ],
            "min" : [
                -2500.000244140625,
                358.0450439453125,
                -2500.000244140625
            ],
            "type" : "VEC3"
        },
        {
            "bufferView" : 9,
            "componentType" : 5126,
            "count" : 363,
            "type" : "VEC3"
        },
        {
            "bufferView" : 10,
            "componentType" : 5126,
            "count" : 363,
            "type" : "VEC2"
        },
        {
            "bufferView" : 11,
            "componentType" : 5123,
            "count" : 363,
            "type" : "SCALAR"
        }
    ],
    "bufferViews" : [
        {
            "buffer" : 0,
            "byteLength" : 64836,
            "byteOffset" : 0
        },
        {
            "buffer" : 0,
            "byteLength" : 64836,
            "byteOffset" : 64836
        },
        {
            "buffer" : 0,
            "byteLength" : 43224,
            "byteOffset" : 129672
        },
        {
            "buffer" : 0,
            "byteLength" : 12732,
            "byteOffset" : 172896
        },
        {
            "buffer" : 0,
            "byteLength" : 27456,
            "byteOffset" : 185628
        },
        {
            "buffer" : 0,
            "byteLength" : 27456,
            "byteOffset" : 213084
        },
        {
            "buffer" : 0,
            "byteLength" : 18304,
            "byteOffset" : 240540
        },
        {
            "buffer" : 0,
            "byteLength" : 4590,
            "byteOffset" : 258844
        },
        {
            "buffer" : 0,
            "byteLength" : 4356,
            "byteOffset" : 263436
        },
        {
            "buffer" : 0,
            "byteLength" : 4356,
            "byteOffset" : 267792
        },
        {
            "buffer" : 0,
            "byteLength" : 2904,
            "byteOffset" : 272148
        },
        {
            "buffer" : 0,
            "byteLength" : 726,
            "byteOffset" : 275052
        }
    ],
    "buffers" : [
        {
            "byteLength" : 275780,
            "uri" : "data:application/octet-stream;base64,"
        }
    ]
}
