{
    "asset" : {
        "generator" : "Khronos glTF Blender I/O v1.0.5",
        "version" : "2.0"
    },
    "scene" : 0,
    "scenes" : [
        {
            "name" : "Scene",
            "nodes" : [
                0,
                1,
                2,
                3,
                4,
                5
            ]
        }
    ],
    "nodes" : [
        {
            "name" : "Light",
            "rotation" : [
                0.16907575726509094,
                0.7558803558349609,
                -0.27217137813568115,
                0.570947527885437
            ],
            "translation" : [
                4.076245307922363,
                5.903861999511719,
                -1.0054539442062378
            ]
        },
        {
            "name" : "Camera",
            "rotation" : [
                0.483536034822464,
                0.33687159419059753,
                -0.20870360732078552,
                0.7804827094078064
            ],
            "translation" : [
                7.358891487121582,
                4.958309173583984,
                6.925790786743164
            ]
        },
        {
            "mesh" : 0,
            "name" : "Cube",
            "scale" : [
                0.004087680485099554,
                0.004087680485099554,
                0.004087680485099554
            ]
        },
        {
            "name" : "Empty",
            "rotation" : [
                0.866025447845459,
                0,
                0,
                0.4999999701976776
            ]
        },
        {
            "mesh" : 1,
            "name" : "Cylinder",
            "rotation" : [
                0,
                0,
                -0.7071067690849304,
                0.7071067690849304
            ],
            "scale" : [
                1,
                6,
                1
            ],
            "translation" : [
                -0.020218586549162865,
                0,
                0
            ]
        },
        {
            "mesh" : 2,
            "name" : "Cylinder.001",
            "scale" : [
                1,
                35.23999786376953,
                1
            ],
            "translation" : [
                -0.02449841797351837,
                -0.006581597030162811,
                -0.0006081946194171906
            ]
        }
    ],
    "meshes" : [
        {
            "name" : "Cube.001",
            "primitives" : [
                {
                    "attributes" : {
                        "POSITION" : 0,
                        "NORMAL" : 1,
                        "TEXCOORD_0" : 2
                    },
                    "indices" : 3
                }
            ]
        },
        {
            "name" : "Cylinder.002",
            "primitives" : [
                {
                    "attributes" : {
                        "POSITION" : 4,
                        "NORMAL" : 5,
                        "TEXCOORD_0" : 6
                    },
                    "indices" : 7
                }
            ]
        },
        {
            "name" : "Cylinder.003",
            "primitives" : [
                {
                    "attributes" : {
                        "POSITION" : 8,
                        "NORMAL" : 9,
                        "TEXCOORD_0" : 10
                    },
                    "indices" : 11
                }
            ]
        }
    ],
    "accessors" : [
        {
            "bufferView" : 0,
            "componentType" : 5126,
            "count" : 262,
            "max" : [
                0.44999998807907104,
                41.2688102722168,
                35.63747024536133
            ],
            "min" : [
                -0.44999998807907104,
                -21.23149871826172,
                -36.084571838378906
            ],
            "type" : "VEC3"
        },
        {
            "bufferView" : 1,
            "componentType" : 5126,
            "count" : 262,
            "type" : "VEC3"
        },
        {
            "bufferView" : 2,
            "componentType" : 5126,
            "count" : 262,
            "type" : "VEC2"
        },
        {
            "bufferView" : 3,
            "componentType" : 5123,
            "count" : 396,
            "type" : "SCALAR"
        },
        {
            "bufferView" : 4,
            "componentType" : 5126,
            "count" : 216,
            "max" : [
                0.010842147283256054,
                0.004999999888241291,
                0.010842147283256054
            ],
            "min" : [
                -0.010842147283256054,
                -0.004999999888241291,
                -0.010842147283256054
            ],
            "type" : "VEC3"
        },
        {
            "bufferView" : 5,
            "componentType" : 5126,
            "count" : 216,
            "type" : "VEC3"
        },
        {
            "bufferView" : 6,
            "componentType" : 5126,
            "count" : 216,
            "type" : "VEC2"
        },
        {
            "bufferView" : 7,
            "componentType" : 5123,
            "count" : 348,
            "type" : "SCALAR"
        },
        {
            "bufferView" : 8,
            "componentType" : 5126,
            "count" : 72,
            "max" : [
                0.01663197949528694,
                -2.7939677238464355e-09,
                0.017917461693286896
            ],
            "min" : [
                -0.017986556515097618,
                -0.010000002570450306,
                -0.016701074317097664
            ],
            "type" : "VEC3"
        },
        {
            "bufferView" : 9,
            "componentType" : 5126,
            "count" : 72,
            "type" : "VEC3"
        },
        {
            "bufferView" : 10,
            "componentType" : 5126,
            "count" : 72,
            "type" : "VEC2"
        },
        {
            "bufferView" : 11,
            "componentType" : 5123,
            "count" : 132,
            "type" : "SCALAR"
        }
    ],
    "bufferViews" : [
        {
            "buffer" : 0,
            "byteLength" : 3144,
            "byteOffset" : 0
        },
        {
            "buffer" : 0,
            "byteLength" : 3144,
            "byteOffset" : 3144
        },
        {
            "buffer" : 0,
            "byteLength" : 2096,
            "byteOffset" : 6288
        },
        {
            "buffer" : 0,
            "byteLength" : 792,
            "byteOffset" : 8384
        },
        {
            "buffer" : 0,
            "byteLength" : 2592,
            "byteOffset" : 9176
        },
        {
            "buffer" : 0,
            "byteLength" : 2592,
            "byteOffset" : 11768
        },
        {
            "buffer" : 0,
            "byteLength" : 1728,
            "byteOffset" : 14360
        },
        {
            "buffer" : 0,
            "byteLength" : 696,
            "byteOffset" : 16088
        },
        {
            "buffer" : 0,
            "byteLength" : 864,
            "byteOffset" : 16784
        },
        {
            "buffer" : 0,
            "byteLength" : 864,
            "byteOffset" : 17648
        },
        {
            "buffer" : 0,
            "byteLength" : 576,
            "byteOffset" : 18512
        },
        {
            "buffer" : 0,
            "byteLength" : 264,
            "byteOffset" : 19088
        }
    ],
    "buffers" : [
        {
            "byteLength" : 19352,
            "uri" : "data:application/octet-stream;base64,"
        }
    ]
}
